<svg xmlns="http://www.w3.org/2000/svg" width="31.067" height="28.11" viewBox="0 0 31.067 28.11">
  <g id="Group_3441" data-name="Group 3441" transform="translate(-280 -103.16)">
      <path id="Path_16191" data-name="Path 16191" d="M276.824,36.471a3.157,3.157,0,1,1,2.2.89,3.021,3.021,0,0,1-2.2-.89" transform="translate(28.94 93.909)" fill="#1baecd"/>
  </g>
<g>
	<path d="M12.8,28.2c-1.8,0-3.5-0.3-5.1-1c-1.5-0.7-2.9-1.7-4-2.9c-1.1-1.3-2-2.8-2.6-4.5c-0.6-1.7-0.9-3.6-0.9-5.6
		c0-2,0.3-3.9,0.9-5.6S2.6,5.2,3.8,4c1.1-1.3,2.5-2.2,4-2.9c1.5-0.7,3.2-1,5.1-1c2.1,0,3.9,0.4,5.5,1.2c1.6,0.8,3,2,4.2,3.5
		l-3.4,3.7c-0.8-1-1.8-1.8-2.7-2.3c-1-0.5-2.1-0.8-3.2-0.8c-1.1,0-2.2,0.2-3.1,0.6C9.2,6.4,8.4,7,7.7,7.8s-1.2,1.7-1.6,2.8
		c-0.4,1.1-0.5,2.2-0.5,3.5c0,1.3,0.2,2.4,0.5,3.5c0.4,1.1,0.9,2,1.6,2.8c0.7,0.8,1.5,1.4,2.4,1.8c0.9,0.4,1.9,0.6,3,0.6
		c1.1,0,2.1-0.2,3.1-0.6c1-0.4,2-1.1,2.9-2l3,4.5c-1.3,1.1-2.7,2-4.4,2.6C16.1,27.9,14.5,28.2,12.8,28.2z M17.3,23.9V13.7h4.9v11
		L17.3,23.9z" fill="#222e4c"/>
</g>
</svg>
