<svg xmlns="http://www.w3.org/2000/svg" width="31.067" height="28.11" viewBox="0 0 31.067 28.11">
  <g id="Group_3441" data-name="Group 3441" transform="translate(-280 -103.16)">
      <path id="Path_16191" data-name="Path 16191" d="M276.824,36.471a3.157,3.157,0,1,1,2.2.89,3.021,3.021,0,0,1-2.2-.89" transform="translate(28.94 93.909)" fill="#1baecd"/>
  </g>
<g>
	<path d="M13.8,28.2c-1.9,0-3.8-0.3-5.5-1c-1.6-0.7-3.1-1.7-4.3-2.9c-1.2-1.3-2.2-2.8-2.8-4.5s-1-3.6-1-5.6
	s0.3-3.9,1-5.6S2.8,5.2,4.1,4c1.2-1.3,2.7-2.2,4.3-2.9s3.4-1,5.5-1c2.3,0,4.2,0.4,5.9,1.2c1.7,0.8,3.2,2,4.5,3.5l-3.7,3.7
	c-0.9-1-1.9-1.8-2.9-2.3c-1.1-0.5-2.3-0.8-3.4-0.8S11.9,5.6,11,6C9.9,6.4,9,7,8.3,7.8S7,9.5,6.6,10.6C6.1,11.7,6,12.8,6,14.1
	s0.2,2.4,0.5,3.5c0.4,1.1,1,2,1.7,2.8s1.6,1.4,2.6,1.8s2,0.6,3.2,0.6s2.3-0.2,3.3-0.6s2.2-1.1,3.1-2l3.2,4.5c-1.4,1.1-2.9,2-4.7,2.6
	C17.3,27.9,15.6,28.2,13.8,28.2z M18.6,23.9V13.7h5.3v11L18.6,23.9z" fill="#222e4c"/>
</g>
</svg>
