<svg xmlns="http://www.w3.org/2000/svg" width="92" height="92" viewBox="0 0 92 92">
  <g id="Group_2571" data-name="Group 2571" transform="translate(-1263 -720)">
    <circle id="Ellipse_1623" data-name="Ellipse 1623" cx="46" cy="46" r="46" transform="translate(1263 720)" fill="#f5f9fa"/>
    <g id="www" transform="translate(1289.096 744.854)">
      <path id="Path_15961" data-name="Path 15961" d="M36.326,24.281h-2.2a16.274,16.274,0,1,0-28.337,0H3.611A3.615,3.615,0,0,0,0,27.892v10.79a3.614,3.614,0,0,0,3.611,3.61H36.326a3.615,3.615,0,0,0,3.611-3.61V27.892a3.615,3.615,0,0,0-3.611-3.611Zm-7-18.032a13.848,13.848,0,0,1,3.648,5.645H31.345a2.026,2.026,0,0,1-2.024-2.024ZM26.773,4.366v5.5a4.578,4.578,0,0,0,4.572,4.573h2.22a13.673,13.673,0,0,1-2.457,9.838H24.8l.181-.223a4.092,4.092,0,0,0,.006-5.8c-.048-.049-.038-.031-.167-.163a5.008,5.008,0,0,0-3.752-1.748h-.907l2.673-2.674a3.585,3.585,0,0,0,0-5.075L17.094,2.864a13.783,13.783,0,0,1,9.679,1.5ZM8.114,9.375a13.941,13.941,0,0,1,6.262-5.624L21.03,10.4a1.038,1.038,0,0,1,0,1.469L17.48,15.422A2.037,2.037,0,0,0,18.919,18.9h2.146a2.907,2.907,0,0,1,2.151,1.2,1.546,1.546,0,0,1-.06,2.178c-.1.1-.032.029-1.646,2.006H15.485V19.629A6.077,6.077,0,0,0,13.694,15.3L7.987,9.6c0-.009.086-.152.127-.222Zm-1.22,2.733,5,5a3.545,3.545,0,0,1,1.045,2.524v4.651H8.813A13.771,13.771,0,0,1,6.894,12.108ZM37.388,38.682a1.063,1.063,0,0,1-1.062,1.061H3.611a1.063,1.063,0,0,1-1.062-1.061V27.892a1.064,1.064,0,0,1,1.062-1.062H36.326a1.064,1.064,0,0,1,1.062,1.062Zm0,0" transform="translate(0 0)" fill="#1baecd"/>
      <path id="Path_15962" data-name="Path 15962" d="M54.163,349.981a1.108,1.108,0,0,0-.138-.027,1.273,1.273,0,0,0-1.415.941l-.074.285-.812,3.129L51.1,353a1.275,1.275,0,0,0-2.3,0l-.619,1.306-.886-3.414a1.275,1.275,0,1,0-2.467.641l1.767,6.812a1.275,1.275,0,0,0,2.386.225l.971-2.048.971,2.048a1.275,1.275,0,0,0,2.385-.225l1.552-5.985.215-.827A1.275,1.275,0,0,0,54.163,349.981Zm0,0" transform="translate(-41.088 -321.034)" fill="#1baecd"/>
      <path id="Path_15963" data-name="Path 15963" d="M323.01,349.978a1.274,1.274,0,0,0-1.554.913l-.886,3.414L319.952,353a1.275,1.275,0,0,0-2.3,0l-.619,1.306-.013-.049h0a.032.032,0,0,1,0,0v0h0v-.005h0v0l-.87-3.351a1.274,1.274,0,1,0-2.466.64l1.762,6.792h0l0,.012h0v0h0a.022.022,0,0,1,0,.005h0a1.275,1.275,0,0,0,2.385.225l.971-2.048.971,2.048a1.276,1.276,0,0,0,2.386-.225l1.767-6.812A1.275,1.275,0,0,0,323.01,349.978Zm0,0" transform="translate(-287.728 -321.031)" fill="#1baecd"/>
      <path id="Path_15964" data-name="Path 15964" d="M354.566,402.238Zm0,0" transform="translate(-325.278 -369.012)" fill="#1baecd"/>
      <path id="Path_15965" data-name="Path 15965" d="M354.531,402.105v0Zm0,0" transform="translate(-325.245 -368.89)" fill="#1baecd"/>
      <path id="Path_15966" data-name="Path 15966" d="M335.465,451.476h0Zm0,0" transform="translate(-307.754 -414.183)" fill="#1baecd"/>
      <path id="Path_15967" data-name="Path 15967" d="M354.523,402.066h0Zm0,0" transform="translate(-325.238 -368.855)" fill="#1baecd"/>
      <path id="Path_15968" data-name="Path 15968" d="M188.584,349.982a1.275,1.275,0,0,0-1.554.913l-.886,3.414L185.526,353a1.275,1.275,0,0,0-2.3,0l-.619,1.306-.886-3.414a1.275,1.275,0,0,0-2.467.64l1.768,6.812a1.275,1.275,0,0,0,2.385.226l.971-2.049.971,2.049a1.275,1.275,0,0,0,2.385-.226l1.768-6.812a1.275,1.275,0,0,0-.914-1.554Zm0,0" transform="translate(-164.406 -321.035)" fill="#1baecd"/>
    </g>
  </g>
</svg>
