<svg xmlns="http://www.w3.org/2000/svg" width="43.999" height="46.596" viewBox="0 0 43.999 46.596">
  <g id="www" transform="translate(-0.001 0)">
    <path id="Path_15961" data-name="Path 15961" d="M40.022,26.751H37.6a17.93,17.93,0,1,0-31.22,0h-2.4A3.983,3.983,0,0,0,0,30.73V42.618A3.982,3.982,0,0,0,3.979,46.6H40.022A3.982,3.982,0,0,0,44,42.618V30.73a3.983,3.983,0,0,0-3.978-3.978ZM32.305,6.885A15.257,15.257,0,0,1,36.325,13.1h-1.79a2.232,2.232,0,0,1-2.23-2.23ZM29.5,4.81v6.064a5.043,5.043,0,0,0,5.038,5.039h2.446a15.064,15.064,0,0,1-2.707,10.839H27.32l.2-.245a4.509,4.509,0,0,0,.007-6.388c-.053-.054-.042-.034-.184-.18a5.518,5.518,0,0,0-4.133-1.925h-1l2.945-2.946a3.95,3.95,0,0,0,0-5.591l-6.321-6.32A15.186,15.186,0,0,1,29.5,4.81ZM8.94,10.329a15.36,15.36,0,0,1,6.9-6.2l7.33,7.33a1.143,1.143,0,0,1,0,1.619l-3.91,3.91a2.245,2.245,0,0,0,1.586,3.829h2.364a3.2,3.2,0,0,1,2.37,1.322,1.7,1.7,0,0,1-.066,2.4c-.115.11-.036.032-1.813,2.21H17.061V21.627a6.7,6.7,0,0,0-1.974-4.766L8.8,10.573c0-.01.095-.167.14-.245ZM7.6,13.34,13.1,18.846a3.906,3.906,0,0,1,1.151,2.781v5.125H9.709A15.172,15.172,0,0,1,7.6,13.34Zm33.6,29.278a1.171,1.171,0,0,1-1.17,1.169H3.979a1.171,1.171,0,0,1-1.17-1.169V30.73a1.172,1.172,0,0,1,1.17-1.17H40.022a1.172,1.172,0,0,1,1.17,1.17Zm0,0" transform="translate(0 0)" fill="#1baecd"></path>
    <path id="Path_15962" data-name="Path 15962" d="M55.117,349.985a1.217,1.217,0,0,0-.153-.03,1.4,1.4,0,0,0-1.558,1.036l-.081.314-.895,3.448-.683-1.439a1.4,1.4,0,0,0-2.538,0l-.681,1.439-.976-3.762a1.4,1.4,0,1,0-2.718.706l1.947,7.505a1.4,1.4,0,0,0,2.629.248l1.07-2.257,1.07,2.257a1.4,1.4,0,0,0,2.627-.248l1.71-6.594.237-.911A1.4,1.4,0,0,0,55.117,349.985Zm0,0" transform="translate(-40.712 -318.092)" fill="#1baecd"></path>
    <path id="Path_15963" data-name="Path 15963" d="M323.964,349.982a1.4,1.4,0,0,0-1.712,1.006l-.977,3.762-.682-1.439a1.4,1.4,0,0,0-2.537,0l-.682,1.439-.014-.054h0a.031.031,0,0,1,0-.005v0h0v-.006h0v0l-.958-3.692a1.4,1.4,0,1,0-2.717.706l1.941,7.483h0l0,.013h0v0h0a.023.023,0,0,1,0,.006h0a1.4,1.4,0,0,0,2.627.248l1.07-2.257,1.07,2.257a1.405,1.405,0,0,0,2.629-.248l1.947-7.505A1.4,1.4,0,0,0,323.964,349.982Zm0,0" transform="translate(-285.092 -318.09)" fill="#1baecd"></path>
    <path id="Path_15964" data-name="Path 15964" d="M354.566,402.238Zm0,0" transform="translate(-322.297 -365.632)" fill="#1baecd"></path>
    <path id="Path_15965" data-name="Path 15965" d="M354.531,402.105v0Zm0,0" transform="translate(-322.266 -365.511)" fill="#1baecd"></path>
    <path id="Path_15966" data-name="Path 15966" d="M335.465,451.476h0Zm0,0" transform="translate(-304.935 -410.389)" fill="#1baecd"></path>
    <path id="Path_15967" data-name="Path 15967" d="M354.523,402.066s0,0,0,0Zm0,0" transform="translate(-322.258 -365.475)" fill="#1baecd"></path>
    <path id="Path_15968" data-name="Path 15968" d="M189.538,349.986a1.4,1.4,0,0,0-1.712,1.006l-.976,3.762-.682-1.439a1.4,1.4,0,0,0-2.537,0l-.682,1.439-.976-3.762a1.4,1.4,0,0,0-2.718.705L181.2,359.2a1.405,1.405,0,0,0,2.628.249l1.07-2.257,1.07,2.257a1.405,1.405,0,0,0,2.627-.249l1.947-7.505a1.4,1.4,0,0,0-1.007-1.712Zm0,0" transform="translate(-162.9 -318.094)" fill="#1baecd"></path>
  </g>
</svg>
