<svg xmlns="http://www.w3.org/2000/svg" xmlns:xlink="http://www.w3.org/1999/xlink" version="1.1" id="Layer_1" x="0px" y="0px" width="30px" height="30px" viewBox="0 0 28 28" enable-background="new 0 0 28 28" xml:space="preserve" class="svg replaced-svg">
<path fill-rule="evenodd" clip-rule="evenodd" d="M0,28V0h28v28H0z M26,2H2v24h24V2z M6.4,8.8c0.2-0.5,0.5-1,0.9-1.4  c0.4-0.4,0.9-0.7,1.4-0.9C9.3,6.2,9.9,6.1,10.7,6c0.9,0,1.1,0,3.3,0c2.2,0,2.4,0,3.3,0c0.9,0,1.4,0.2,1.9,0.4c0.5,0.2,1,0.5,1.4,0.9  c0.4,0.4,0.7,0.9,0.9,1.4c0.2,0.5,0.3,1.1,0.4,1.9c0,0.9,0,1.1,0,3.3s0,2.4,0,3.3c0,0.9-0.2,1.4-0.4,1.9c-0.2,0.5-0.5,1-0.9,1.4  c-0.4,0.4-0.9,0.7-1.4,0.9c-0.5,0.2-1.1,0.3-1.9,0.4c-0.9,0-1.1,0-3.3,0c-2.2,0-2.4,0-3.3,0c-0.9,0-1.4-0.2-1.9-0.4  c-0.5-0.2-1-0.5-1.4-0.9c-0.4-0.4-0.7-0.9-0.9-1.4c-0.2-0.5-0.3-1.1-0.4-1.9c0-0.9,0-1.1,0-3.3s0-2.4,0-3.3C6.1,9.9,6.2,9.3,6.4,8.8  z M7.5,17.2c0,0.8,0.2,1.2,0.3,1.5c0.1,0.4,0.3,0.6,0.6,0.9c0.3,0.3,0.5,0.5,0.9,0.6c0.3,0.1,0.7,0.2,1.5,0.3c0.8,0,1.1,0,3.2,0  c2.1,0,2.4,0,3.2,0c0.8,0,1.2-0.2,1.5-0.3c0.4-0.1,0.6-0.3,0.9-0.6c0.3-0.3,0.5-0.5,0.6-0.9c0.1-0.3,0.2-0.7,0.3-1.5  c0-0.8,0-1.1,0-3.2c0-2.1,0-2.4,0-3.2c0-0.8-0.2-1.2-0.3-1.5c-0.1-0.4-0.3-0.6-0.6-0.9c-0.3-0.3-0.5-0.5-0.9-0.6  c-0.3-0.1-0.7-0.2-1.5-0.3c-0.8,0-1.1,0-3.2,0c-2.1,0-2.4,0-3.2,0c-0.8,0-1.2,0.2-1.5,0.3C8.9,7.9,8.6,8.1,8.4,8.4  C8.1,8.6,7.9,8.9,7.8,9.3C7.7,9.6,7.5,10,7.5,10.8c0,0.8,0,1.1,0,3.2C7.4,16.1,7.4,16.4,7.5,17.2z M14,9.9c2.3,0,4.1,1.8,4.1,4.1  c0,2.3-1.8,4.1-4.1,4.1c-2.3,0-4.1-1.8-4.1-4.1C9.9,11.7,11.7,9.9,14,9.9z M14,16.7c1.5,0,2.7-1.2,2.7-2.7s-1.2-2.7-2.7-2.7  c-1.5,0-2.7,1.2-2.7,2.7S12.5,16.7,14,16.7z M17.3,9.7c0-0.5,0.4-1,1-1c0.5,0,1,0.4,1,1c0,0.5-0.4,1-1,1  C17.7,10.7,17.3,10.3,17.3,9.7z">
</path>
</svg>
