<svg xmlns="http://www.w3.org/2000/svg" xmlns:xlink="http://www.w3.org/1999/xlink" version="1.1" id="Layer_1" x="0px" y="0px" width="30px" height="30px" viewBox="0 0 28 28" enable-background="new 0 0 28 28" xml:space="preserve" class="svg replaced-svg">
<path fill-rule="evenodd" clip-rule="evenodd" d="M0,28V0h28v28H0z M26,2H2v24h24V2z M10.9,17.4c-1.4,0-2.6-0.9-3.1-2.1  c0.2,0,0.4,0.1,0.6,0.1c0.3,0,0.6,0,0.9-0.1c-1.5-0.3-2.6-1.5-2.6-3c0,0,0,0,0,0c0.4,0.2,0.9,0.4,1.5,0.4c-0.9-0.5-1.5-1.5-1.5-2.5  c0-0.6,0.2-1.1,0.4-1.5c1.6,1.8,4,3,6.8,3.2c-0.1-0.2-0.1-0.5-0.1-0.7c0-1.7,1.5-3,3.3-3c0.9,0,1.8,0.4,2.4,1  c0.7-0.1,1.5-0.4,2.1-0.7c-0.2,0.7-0.8,1.3-1.4,1.7c0.7-0.1,1.3-0.2,1.9-0.5c-0.4,0.6-1,1.1-1.6,1.6c0,0.1,0,0.3,0,0.4  c0,4-3.3,8.6-9.3,8.6c-1.9,0-3.6-0.5-5-1.4c0.3,0,0.5,0,0.8,0C8.3,18.7,9.7,18.2,10.9,17.4z">
</path>
</svg>
