<svg xmlns="http://www.w3.org/2000/svg" xmlns:xlink="http://www.w3.org/1999/xlink" version="1.1" id="Layer_1" x="0px" y="0px" width="30px" height="30px" viewBox="0 0 28 28" enable-background="new 0 0 28 28" xml:space="preserve" class="svg replaced-svg">
<path fill-rule="evenodd" clip-rule="evenodd" d="M0,28V0h28v28H0z M26,2H2v24h24V2z M7.9,6C9,6,9.8,6.9,9.8,7.9  C9.8,9,9,9.9,7.9,9.9C6.9,9.9,6,9,6,7.9C6,6.9,6.9,6,7.9,6z M9.6,22H6.3V11.3h3.3V22z M14.8,12.8L14.8,12.8c0.5-0.8,1.6-1.7,3.2-1.7  c3.4,0,4,2.2,4,5.1V22h-3.3v-5.2c0-1.2,0-2.8-1.7-2.8c-1.7,0-2,1.3-2,2.7V22h-3.3V11.3h3.2V12.8z">
</path>
</svg>
