<svg xmlns="http://www.w3.org/2000/svg" xmlns:xlink="http://www.w3.org/1999/xlink" width="40" height="48" viewBox="0 0 40 48">
  <defs>
    <clippath id="clip-path">
      <rect id="Rectangle_600" data-name="Rectangle 600" width="40" height="48" transform="translate(0 0.334)" fill="#1baecd"></rect>
    </clippath>
  </defs>
  <g id="Group_4168" data-name="Group 4168" transform="translate(-0.266 -0.094)">
    <g id="Group_4167" data-name="Group 4167" transform="translate(0.266 -0.24)" clip-path="url(#clip-path)">
      <path id="Path_18936" data-name="Path 18936" d="M20.291,0A20.28,20.28,0,0,0,0,20.291v10.33a5.534,5.534,0,1,0,11.068,0V23.98a5.531,5.531,0,0,0-7.305-5.241,16.6,16.6,0,0,1,33.057,0,5.531,5.531,0,0,0-7.305,5.241v6.641a5.533,5.533,0,0,0,7.14,5.3,5.543,5.543,0,0,1-5.3,3.928H25.507a5.534,5.534,0,1,0,0,3.689h5.851a9.234,9.234,0,0,0,9.223-9.223V20.291A20.28,20.28,0,0,0,20.291,0M5.534,22.135A1.847,1.847,0,0,1,7.378,23.98v6.641a1.845,1.845,0,1,1-3.689,0V23.98a1.847,1.847,0,0,1,1.845-1.845m14.757,21.4a1.845,1.845,0,1,1,1.845-1.845,1.847,1.847,0,0,1-1.845,1.845M35.048,32.465A1.847,1.847,0,0,1,33.2,30.621V23.98a1.845,1.845,0,1,1,3.689,0v6.641a1.847,1.847,0,0,1-1.845,1.845" transform="translate(-0.378 0.47)" fill="#1baecd"></path>
    </g>
  </g>
</svg>
