<svg xmlns="http://www.w3.org/2000/svg" xmlns:xlink="http://www.w3.org/1999/xlink" width="92" height="92" viewBox="0 0 92 92">
  <defs>
    <clipPath id="clip-path">
      <rect id="Rectangle_552" data-name="Rectangle 552" width="43.043" height="45.583" fill="none"/>
    </clipPath>
  </defs>
  <g id="Group_2570" data-name="Group 2570" transform="translate(-801 -720)">
    <circle id="Ellipse_1622" data-name="Ellipse 1622" cx="46" cy="46" r="46" transform="translate(801 720)" fill="#f5f9fa"/>
    <g id="Group_2530" data-name="Group 2530" transform="translate(825.479 740.951)">
      <g id="Group_2529" data-name="Group 2529" clip-path="url(#clip-path)">
        <path id="Path_15969" data-name="Path 15969" d="M47.5,115.6a1.462,1.462,0,1,0,1.058.421A1.48,1.48,0,0,0,47.5,115.6" transform="translate(-31.391 -78.873)" fill="#05a0c4"/>
        <path id="Path_15970" data-name="Path 15970" d="M58.536,92.859h-.249a1.127,1.127,0,0,0-1.126,1.126v7.894a1.127,1.127,0,0,0,1.126,1.126h.249a1.127,1.127,0,0,0,1.126-1.126V93.985a1.127,1.127,0,0,0-1.126-1.126" transform="translate(-39.001 -63.359)" fill="#05a0c4"/>
        <path id="Path_15971" data-name="Path 15971" d="M71.908,100.971h-.069a1.126,1.126,0,0,0-1.036.683l-1.485,3.473-1.476-3.471a1.124,1.124,0,0,0-1.036-.685h-.19a1.126,1.126,0,0,0-1.033,1.575l2.41,5.544-.027.063a1.4,1.4,0,0,1-.35.528.855.855,0,0,1-.827.014,1.151,1.151,0,0,0-1.454.516,1.111,1.111,0,0,0-.075.89,1.085,1.085,0,0,0,.589.641c.086.037.176.072.27.1a3.564,3.564,0,0,0,1.13.186,3,3,0,0,0,1.775-.528,3.725,3.725,0,0,0,1.215-1.716l2.7-6.241a1.126,1.126,0,0,0-1.033-1.574" transform="translate(-44.487 -68.894)" fill="#05a0c4"/>
        <path id="Path_15972" data-name="Path 15972" d="M39.151,26.171H36.78a17.539,17.539,0,1,0-30.54,0H3.892A3.9,3.9,0,0,0,0,30.063V41.692a3.9,3.9,0,0,0,3.892,3.891H39.151a3.9,3.9,0,0,0,3.892-3.891V30.063a3.9,3.9,0,0,0-3.892-3.892M6.737,17.46c0-.151.006-.3.011-.454,0-.082.007-.163.011-.244a14.826,14.826,0,0,1,.671-3.71l.019.019a14.677,14.677,0,0,1,1.182-2.7l-.023-.024c0-.01.092-.164.137-.239v0a15.023,15.023,0,0,1,6.749-6.061l.048.048a14.673,14.673,0,0,1,2.937-.948l-.056-.056A14.854,14.854,0,0,1,28.855,4.706v.073a14.832,14.832,0,0,1,2.751,2.028v-.07a14.921,14.921,0,0,1,3.932,6.084H35.51a14.684,14.684,0,0,1,.655,2.743h.011a14.729,14.729,0,0,1,.131,1.921c0,.045,0,.089,0,.134,0,.01,0,.021,0,.031,0,.047,0,.095,0,.142a14.712,14.712,0,0,1-2.726,8.379H32.172c.017-1.334.064-2.671.116-4.042.1-2.579.2-5.245.055-7.9l0-.044a7.969,7.969,0,0,1-.012-1.079,9.139,9.139,0,0,0-.029-1.73,1.212,1.212,0,0,0,.008-.127,1.2,1.2,0,0,0-.037-1.016,1.228,1.228,0,0,0-.074-.162,1.2,1.2,0,0,0-.05-.151l-.022-.054a1.21,1.21,0,0,0-.494-.585l-.05-.031A1.234,1.234,0,0,0,31.2,9.1l-.07-.015-.015,0a1.194,1.194,0,0,0-.535-.109,1.208,1.208,0,0,0-.393.046c-.037-.019-.075-.037-.113-.053l-.214-.089a1.277,1.277,0,0,0-.185-.059l-.2-.048a2.726,2.726,0,0,0-1.808-1.127c-.056-.016-.113-.032-.14-.042a1.2,1.2,0,0,0-.506-.078,6.365,6.365,0,0,0-1.674.327,4.688,4.688,0,0,0-1.907,1.236,1.441,1.441,0,0,0-.2.257,1.2,1.2,0,0,0-.084.151l-.081.174a1.239,1.239,0,0,0-.1.206,1.19,1.19,0,0,0-.082.406l-.013.088a1.251,1.251,0,0,0-.014.138l0,.077c0,.043,0,.086,0,.134l0,.066a1.22,1.22,0,0,0,.037.224l.015.084a1.158,1.158,0,0,0,.062.265l.091.257c0,.008.006.017.009.025l-.046.044L23,11.652l-.114-.1a5.494,5.494,0,0,0-2.194-1.086l-.251-.086a3.24,3.24,0,0,0-.991-.143c-.068,0-.187,0-.241-.012a.179.179,0,0,1-.055-.086c-.007-.029-.011-.06-.021-.113a2.091,2.091,0,0,0-.473-1.112,2.136,2.136,0,0,0-1.413-.645l-.073-.046a2.435,2.435,0,0,0-.722-.338l-.007,0a1.2,1.2,0,0,0-.141-.052L16.186,7.8a1.283,1.283,0,0,0-.17-.038l-.058-.009a1.187,1.187,0,0,0-.149-.013c-.025-.014-.053-.029-.086-.046a1.261,1.261,0,0,0-.32-.1l-.13-.024a1.239,1.239,0,0,0-.266-.018l-.1,0a1.363,1.363,0,0,0-.2.024,1.222,1.222,0,0,0-.376.137.919.919,0,0,1-.607-.237,1.224,1.224,0,0,0-.571-.252l-.342-.054a1.224,1.224,0,0,0-1.335,1.648.2.2,0,0,1-.014.151.2.2,0,0,1-.127.082,1.229,1.229,0,0,0-.9.585c-.013.022-.025.044-.037.066l-.036.027a1.966,1.966,0,0,0-.73,1.768c.008.115.022.227.037.339-.061.061-.129.125-.19.177a1.224,1.224,0,0,0-.728,2.01,1.868,1.868,0,0,1,.444.816,3.432,3.432,0,0,1,.006.563,5.175,5.175,0,0,0,.048,1.131,1.528,1.528,0,0,1-.05.272,2.708,2.708,0,0,0-.059,1.255c-.029.027-.057.056-.084.085a1.755,1.755,0,0,0-.2,2,2.979,2.979,0,0,0,.483.64l.053.059a2.545,2.545,0,0,1,.069.275,3.262,3.262,0,0,0,.365,1.026,1.744,1.744,0,0,0,.714.693,1.808,1.808,0,0,0,.939.167l.039,0c.213-.01.277.016.274.024.036.056.07.114.112.185a2.958,2.958,0,0,0,.908,1.052,2.966,2.966,0,0,0,1.286.422c.064.009.129.018.192.03a1.967,1.967,0,0,1,1.13.649,1.223,1.223,0,0,0,1.265.381,4.969,4.969,0,0,0,1.33-.666c.213-.137.56-.376.686-.357a2.1,2.1,0,0,1,.425.2c.763.413,1.539.83,2.319,1.248H9.461a14.71,14.71,0,0,1-2.714-7.993c0-.03,0-.061,0-.091,0-.156-.012-.311-.012-.469,0-.053,0-.105,0-.159m19.91,8.711-.791-.421C23.874,24.7,22,23.694,20.293,22.769h0a3.508,3.508,0,0,0-1.349-.478,3.431,3.431,0,0,0-2.25.736l-.126.081a4.389,4.389,0,0,0-1.841-.8c-.092-.017-.186-.03-.279-.044s-.207-.03-.276-.047c-.044-.059-.111-.173-.154-.247-.054-.092-.108-.184-.166-.273a2.45,2.45,0,0,0-2-1.141,2.877,2.877,0,0,0-.47-1.154,1.8,1.8,0,0,0,.167-1.851c.006-.037.02-.1.042-.194a2.928,2.928,0,0,0,.076-1.256,3.21,3.21,0,0,1-.012-.616,5.272,5.272,0,0,0-.03-1.007,3.481,3.481,0,0,0-.259-.876,2.417,2.417,0,0,0,.772-1.274,3.2,3.2,0,0,0-.031-.8l.018-.013a1.609,1.609,0,0,0,.25-.237,2.633,2.633,0,0,0,1.2-1.05q.04-.065.074-.132a2.933,2.933,0,0,0,1.348-.019,1.243,1.243,0,0,0,.2.069l.061.015a1.167,1.167,0,0,0,.345.034h.017a1.28,1.28,0,0,0,.166.05l.074.047a2.433,2.433,0,0,0,.9.383l.006.024a2.623,2.623,0,0,0,1.166,1.621,2.675,2.675,0,0,0,1.456.367,2.267,2.267,0,0,1,.262.014l.294.1a1.281,1.281,0,0,0,.135.039,3.018,3.018,0,0,1,1.243.6l.092.077a2.689,2.689,0,0,0,1.022.6,2.28,2.28,0,0,0,1.981-.414A2.962,2.962,0,0,0,25.608,11.9l.006-.058a1.173,1.173,0,0,0,.008-.19l-.008-.2a1.184,1.184,0,0,0-.118-.479,1.209,1.209,0,0,0-.135-.284l-.021-.032a2.1,2.1,0,0,1,.793-.484,3.9,3.9,0,0,1,.819-.183l.06.018.18.054a1.272,1.272,0,0,0,.413.616,1.2,1.2,0,0,0,.108.08l.045.044c.018.02.04.042.069.07a1.224,1.224,0,0,0,1.1.32l.029.017a1.23,1.23,0,0,0,.412.206l.031.009a1.189,1.189,0,0,0,.344.045h.1l0,.011a7.31,7.31,0,0,1,.04,1.428,10.005,10.005,0,0,0,.006,1.423l0,.041c.135,2.544.037,5.156-.057,7.681-.054,1.458-.1,2.773-.117,4.123v.006ZM40.3,41.692a1.145,1.145,0,0,1-1.145,1.143H3.892a1.145,1.145,0,0,1-1.145-1.143V30.063a1.147,1.147,0,0,1,1.145-1.144H39.151A1.147,1.147,0,0,1,40.3,30.063Z" transform="translate(0 0)" fill="#05a0c4"/>
      </g>
    </g>
  </g>
</svg>
