<svg xmlns="http://www.w3.org/2000/svg" width="399.998" height="382.349" viewBox="0 0 399.998 382.349"><g transform="translate(-56 -54.28)"><rect width="85.76" height="257.962" transform="translate(61.053 178.667)" fill="#2867b2"/><path d="M104.512,54.28C75.171,54.28,56,73.57,56,98.853c0,24.752,18.588,44.574,47.377,44.574h.554c29.9,0,48.516-19.822,48.516-44.574-.555-25.283-18.611-44.573-47.935-44.573Z" fill="#2867b2"/><path d="M357.278,172.6c-45.49,0-65.866,25.017-77.276,42.589V178.667H194.264c1.137,24.2,0,257.961,0,257.961H280V292.564c0-7.711.554-15.42,2.827-20.931,6.188-15.4,20.3-31.352,43.993-31.352,31.012,0,43.436,23.664,43.436,58.327v138.02H456V288.7C456,209.461,413.693,172.6,357.278,172.6Z" fill="#2867b2"/></g></svg>