<svg xmlns="http://www.w3.org/2000/svg" width="195.58" height="36.861" viewBox="0 0 195.58 36.861">
  <g id="Group_2515" data-name="Group 2515" transform="translate(-287.713 485)">
    <path id="Path_15947" data-name="Path 15947" d="M86.064,30.168,80.647,22.4a10.056,10.056,0,0,1-1.023.038H73.638v7.728H68.713V3.649H79.624a14.678,14.678,0,0,1,6,1.137,8.733,8.733,0,0,1,3.921,3.258,9.12,9.12,0,0,1,1.364,5.039,8.985,8.985,0,0,1-1.459,5.152,8.672,8.672,0,0,1-4.186,3.22l6.1,8.713ZM84.284,9.18A7.564,7.564,0,0,0,79.4,7.816H73.638v10.57H79.4A7.489,7.489,0,0,0,84.284,17a4.809,4.809,0,0,0,1.667-3.921,4.753,4.753,0,0,0-1.667-3.9" transform="translate(219 -485.922)" fill="#222e4c"/>
    <path id="Path_15948" data-name="Path 15948" d="M123.538,23.617H107.665a5.5,5.5,0,0,0,2.179,3.543,7.143,7.143,0,0,0,4.375,1.306,7.376,7.376,0,0,0,5.494-2.2l2.538,2.917a8.556,8.556,0,0,1-3.448,2.463,13.663,13.663,0,0,1-10.57-.493,9.548,9.548,0,0,1-3.921-3.693,10.428,10.428,0,0,1-1.383-5.361,10.58,10.58,0,0,1,1.345-5.322,9.539,9.539,0,0,1,3.732-3.694,10.894,10.894,0,0,1,5.38-1.327,10.617,10.617,0,0,1,5.285,1.307,9.261,9.261,0,0,1,3.637,3.676,11.14,11.14,0,0,1,1.307,5.474q0,.493-.076,1.4m-14-6.724a5.658,5.658,0,0,0-1.913,3.58h11.479a5.583,5.583,0,0,0-1.856-3.56,5.651,5.651,0,0,0-3.865-1.365,5.718,5.718,0,0,0-3.845,1.345" transform="translate(210.356 -487.971)" fill="#222e4c"/>
    <path id="Path_15949" data-name="Path 15949" d="M156.2,11.987V29.148q0,10.685-10.911,10.684a20.25,20.25,0,0,1-5.531-.739,11.732,11.732,0,0,1-4.318-2.141l2.121-3.561a10.13,10.13,0,0,0,3.353,1.762,13.145,13.145,0,0,0,4.11.664q3.334,0,4.888-1.516a6.2,6.2,0,0,0,1.553-4.622V28.618a7.778,7.778,0,0,1-2.955,2.007,10.422,10.422,0,0,1-3.827.682,10.971,10.971,0,0,1-5.209-1.232A9.23,9.23,0,0,1,135.8,26.61a9.72,9.72,0,0,1-1.345-5.113,9.624,9.624,0,0,1,1.345-5.1,9.155,9.155,0,0,1,3.675-3.429,11.12,11.12,0,0,1,5.209-1.213,10.675,10.675,0,0,1,4,.721,7.374,7.374,0,0,1,3.012,2.2v-2.69Zm-6.383,13.695a5.464,5.464,0,0,0,1.723-4.185,5.361,5.361,0,0,0-1.723-4.129,6.967,6.967,0,0,0-8.865,0,5.358,5.358,0,0,0-1.723,4.129,5.461,5.461,0,0,0,1.723,4.185,6.9,6.9,0,0,0,8.865,0" transform="translate(202.39 -487.971)" fill="#222e4c"/>
    <path id="Path_15950" data-name="Path 15950" d="M171.878,4.868a2.658,2.658,0,0,1-.871-2.027,2.661,2.661,0,0,1,.871-2.027A3.042,3.042,0,0,1,174.038,0a3.132,3.132,0,0,1,2.16.777,2.506,2.506,0,0,1,.871,1.951,2.86,2.86,0,0,1-.852,2.1,2.952,2.952,0,0,1-2.179.852,3.039,3.039,0,0,1-2.159-.815m-.227,4.149h4.735v20.23h-4.735Z" transform="translate(193.157 -485)" fill="#222e4c"/>
    <path id="Path_15951" data-name="Path 15951" d="M187.176,31.839a12.08,12.08,0,0,1-3.75-1.629l1.818-3.6a11.662,11.662,0,0,0,3.277,1.458,13.581,13.581,0,0,0,3.77.549q4.242,0,4.243-2.235a1.493,1.493,0,0,0-1.08-1.477,18.62,18.62,0,0,0-3.466-.8,28.011,28.011,0,0,1-4.072-.871,6.24,6.24,0,0,1-2.728-1.724,4.809,4.809,0,0,1-1.155-3.428,5.39,5.39,0,0,1,2.406-4.6,10.949,10.949,0,0,1,6.5-1.723,18.731,18.731,0,0,1,4.167.474,11.673,11.673,0,0,1,3.409,1.269l-1.818,3.6a11.221,11.221,0,0,0-5.8-1.515,6.428,6.428,0,0,0-3.164.625,1.866,1.866,0,0,0-1.08,1.648,1.646,1.646,0,0,0,1.155,1.611,18.417,18.417,0,0,0,3.58.89,27.7,27.7,0,0,1,3.978.871,6.236,6.236,0,0,1,2.671,1.667,4.65,4.65,0,0,1,1.117,3.333,5.278,5.278,0,0,1-2.463,4.547,11.617,11.617,0,0,1-6.705,1.7,18.127,18.127,0,0,1-4.811-.644" transform="translate(190.019 -487.971)" fill="#222e4c"/>
    <path id="Path_15952" data-name="Path 15952" d="M223.876,29.685a5.589,5.589,0,0,1-2.027,1.023,9.134,9.134,0,0,1-2.519.341,7.147,7.147,0,0,1-5.152-1.743,6.708,6.708,0,0,1-1.818-5.077V14.493h-3.334V10.7h3.334V6.083h4.735V10.7h5.418v3.788h-5.418v9.622a3.2,3.2,0,0,0,.72,2.254,2.7,2.7,0,0,0,2.083.777,4.163,4.163,0,0,0,2.652-.833Z" transform="translate(183.552 -486.537)" fill="#222e4c"/>
    <path id="Path_15953" data-name="Path 15953" d="M276.824,36.471a3.157,3.157,0,1,1,2.2.89,3.021,3.021,0,0,1-2.2-.89" transform="translate(166.653 -492.85)" fill="#222e4c"/>
    <rect id="Rectangle_548" data-name="Rectangle 548" width="4.735" height="28.11" transform="translate(453.403 -483.864)" fill="#222e4c"/>
    <path id="Path_15954" data-name="Path 15954" d="M322.736,12.064l-9.471,21.86a10.175,10.175,0,0,1-3.22,4.64,7.716,7.716,0,0,1-4.584,1.345,9.416,9.416,0,0,1-2.993-.493,6.63,6.63,0,0,1-2.424-1.364l1.895-3.486a5.146,5.146,0,0,0,1.61,1.023,4.938,4.938,0,0,0,1.875.379,3.23,3.23,0,0,0,2.065-.644,5.7,5.7,0,0,0,1.5-2.159l.341-.8L300.5,12.064h4.925l6.365,14.964,6.4-14.964Z" transform="translate(160.557 -488.048)" fill="#222e4c"/>
    <path id="Path_15955" data-name="Path 15955" d="M256.3,36.441h5.918V28.5c-1.475,2.914-2.671,6.06-5.918,7.942" transform="translate(171.608 -492.2)" fill="#222e4c"/>
    <path id="Path_15956" data-name="Path 15956" d="M260.793,11.171c-3.4,0-5.794.924-6.612,2.838l-.05.1h-.007v.028l.006-2.933-4.948-.009v9.832c-.043,2.659-3.791,6.269-6.6,6.785a17.894,17.894,0,0,1-3.288.238,7.42,7.42,0,0,1-2.416-.374,5.215,5.215,0,0,1-1.866-1.089,4.8,4.8,0,0,1-1.2-1.773,6.532,6.532,0,0,1-.424-2.448h13.854q.062-.725.093-1.555t.031-1.347a11.379,11.379,0,0,0-.6-3.774A8.3,8.3,0,0,0,245,12.723a7.956,7.956,0,0,0-2.883-1.939,10.538,10.538,0,0,0-3.962-.694,9.955,9.955,0,0,0-4.1.819,8.743,8.743,0,0,0-3.121,2.323,10.73,10.73,0,0,0-1.991,3.608,14.663,14.663,0,0,0-.706,4.677,13.517,13.517,0,0,0,.706,4.563,8.86,8.86,0,0,0,2.033,3.308,8.532,8.532,0,0,0,3.235,2.022,15.65,15.65,0,0,0,4.314.685,26.629,26.629,0,0,0,2.775-.037,17.856,17.856,0,0,0,3.3-.558c6.865-2.285,8.062-9.166,11.529-13.717h0a4.452,4.452,0,0,1,3.682-1.708c.633,0,1.407-.012,1.984-.007v-4.9c-.281,0-.562,0-1,0m-25.871,3.968a4.705,4.705,0,0,1,3.362-1.309,6.276,6.276,0,0,1,2.161.3,4.164,4.164,0,0,1,1.465.91,4.271,4.271,0,0,1,.9,1.525,6.091,6.091,0,0,1,.312,2.167H233.47a5.851,5.851,0,0,1,1.451-3.6" transform="translate(178.696 -487.549)" fill="#222e4c"/>
  </g>
</svg>
