<svg xmlns="http://www.w3.org/2000/svg" width="31.067" height="28.11" viewBox="0 0 31.067 28.11">
  <g id="Group_3441" data-name="Group 3441" transform="translate(-458 240.84)">
    <g id="Group_3440" data-name="Group 3440" transform="translate(178 -344)">
      <path id="Path_16190" data-name="Path 16190" d="M86.064,31.759l-5.417-8.232a9.491,9.491,0,0,1-1.023.04H73.638v8.191H68.713V3.649H79.624a13.957,13.957,0,0,1,6,1.2,8.877,8.877,0,0,1,3.921,3.453,10.108,10.108,0,0,1,1.364,5.341,9.947,9.947,0,0,1-1.459,5.461,8.761,8.761,0,0,1-4.186,3.413l6.1,9.236ZM84.284,9.512A7.261,7.261,0,0,0,79.4,8.066H73.638v11.2H79.4A7.193,7.193,0,0,0,84.284,17.8a5.241,5.241,0,0,0,1.667-4.157,5.179,5.179,0,0,0-1.667-4.136" transform="translate(211.287 99.511)" fill="#222e4c"/>
      <path id="Path_16191" data-name="Path 16191" d="M276.824,36.471a3.157,3.157,0,1,1,2.2.89,3.021,3.021,0,0,1-2.2-.89" transform="translate(28.94 93.909)" fill="#1baecd"/>
    </g>
  </g>
</svg>
